<svg width="665" height="167" viewBox="0 0 665 167" fill="none" xmlns="http://www.w3.org/2000/svg">
<mask id="mask0_902_176" style="mask-type:alpha" maskUnits="userSpaceOnUse" x="0" y="0" width="665" height="167">
<rect x="0.232178" y="0.842529" width="664.128" height="165.796" fill="#D9D9D9"/>
</mask>
<g mask="url(#mask0_902_176)">
<rect x="0.244054" y="0.429525" width="55" height="55" rx="5.5" transform="matrix(1 0 -0.511893 0.859049 113.58 -23.1503)" stroke="#192937"/>
<rect x="0.244054" y="0.429525" width="55" height="55" rx="5.5" transform="matrix(1 0 -0.511893 0.859049 168.58 -23.1503)" stroke="#192937"/>
<rect x="0.244054" y="0.429525" width="55" height="55" rx="5.5" transform="matrix(1 0 -0.511893 0.859049 223.58 -23.1503)" stroke="#192937"/>
<rect x="0.244054" y="0.429525" width="55" height="55" rx="5.5" transform="matrix(1 0 -0.511893 0.859049 278.58 -23.1503)" stroke="#192937"/>
<rect x="0.244054" y="0.429525" width="55" height="55" rx="5.5" transform="matrix(1 0 -0.511893 0.859049 333.58 -23.1503)" stroke="#192937"/>
<rect x="0.244054" y="0.429525" width="55" height="55" rx="5.5" transform="matrix(1 0 -0.511893 0.859049 388.58 -23.1503)" stroke="#192937"/>
<rect x="0.244054" y="0.429525" width="55" height="55" rx="5.5" transform="matrix(1 0 -0.511893 0.859049 443.58 -23.1503)" stroke="#192937"/>
<rect x="0.244054" y="0.429525" width="55" height="55" rx="5.5" transform="matrix(1 0 -0.511893 0.859049 498.58 -23.1503)" stroke="#192937"/>
<rect x="0.244054" y="0.429525" width="55" height="55" rx="5.5" transform="matrix(1 0 -0.511893 0.859049 553.58 -23.1503)" stroke="#192937"/>
<rect x="0.244054" y="0.429525" width="55" height="55" rx="5.5" transform="matrix(1 0 -0.511893 0.859049 608.58 -23.1503)" stroke="#192937"/>
<rect x="0.244054" y="0.429525" width="55" height="55" rx="5.5" transform="matrix(1 0 -0.511893 0.859049 85.4263 24.0974)" stroke="#192937"/>
<rect x="0.244054" y="0.429525" width="55" height="55" rx="5.5" transform="matrix(1 0 -0.511893 0.859049 140.426 24.0974)" stroke="#192937"/>
<rect x="0.244054" y="0.429525" width="55" height="55" rx="5.5" transform="matrix(1 0 -0.511893 0.859049 195.426 24.0974)" stroke="#192937"/>
<rect x="0.244054" y="0.429525" width="55" height="55" rx="5.5" transform="matrix(1 0 -0.511893 0.859049 250.426 24.0974)" stroke="#192937"/>
<rect x="0.244054" y="0.429525" width="55" height="55" rx="5.5" transform="matrix(1 0 -0.511893 0.859049 305.426 24.0974)" stroke="#192937"/>
<rect x="0.244054" y="0.429525" width="55" height="55" rx="5.5" transform="matrix(1 0 -0.511893 0.859049 360.426 24.0974)" stroke="#192937"/>
<rect x="0.244054" y="0.429525" width="55" height="55" rx="5.5" transform="matrix(1 0 -0.511893 0.859049 415.426 24.0974)" stroke="#192937"/>
<rect x="0.244054" y="0.429525" width="55" height="55" rx="5.5" transform="matrix(1 0 -0.511893 0.859049 470.426 24.0974)" stroke="#192937"/>
<rect x="0.244054" y="0.429525" width="55" height="55" rx="5.5" transform="matrix(1 0 -0.511893 0.859049 525.426 24.0974)" stroke="#192937"/>
<rect x="0.244054" y="0.429525" width="55" height="55" rx="5.5" transform="matrix(1 0 -0.511893 0.859049 580.426 24.0974)" stroke="#192937"/>
<rect x="0.244054" y="0.429525" width="55" height="55" rx="5.5" transform="matrix(1 0 -0.511893 0.859049 57.2721 71.3451)" stroke="#192937"/>
<rect x="0.244054" y="0.429525" width="55" height="55" rx="5.5" transform="matrix(1 0 -0.511893 0.859049 112.272 71.3451)" stroke="#192937"/>
<rect x="0.244054" y="0.429525" width="55" height="55" rx="5.5" transform="matrix(1 0 -0.511893 0.859049 167.272 71.3451)" stroke="#192937"/>
<rect x="0.244054" y="0.429525" width="55" height="55" rx="5.5" transform="matrix(1 0 -0.511893 0.859049 222.272 71.3451)" stroke="#192937"/>
<rect x="0.244054" y="0.429525" width="55" height="55" rx="5.5" transform="matrix(1 0 -0.511893 0.859049 277.272 71.3451)" stroke="#192937"/>
<rect x="0.244054" y="0.429525" width="55" height="55" rx="5.5" transform="matrix(1 0 -0.511893 0.859049 332.272 71.3451)" stroke="#192937"/>
<rect x="0.244054" y="0.429525" width="55" height="55" rx="5.5" transform="matrix(1 0 -0.511893 0.859049 387.272 71.3451)" stroke="#192937"/>
<rect x="0.244054" y="0.429525" width="55" height="55" rx="5.5" transform="matrix(1 0 -0.511893 0.859049 442.272 71.3451)" stroke="#192937"/>
<rect x="0.244054" y="0.429525" width="55" height="55" rx="5.5" transform="matrix(1 0 -0.511893 0.859049 497.272 71.3451)" stroke="#192937"/>
<rect x="0.244054" y="0.429525" width="55" height="55" rx="5.5" transform="matrix(1 0 -0.511893 0.859049 552.272 71.3451)" stroke="#192937"/>
<rect x="0.244054" y="0.429525" width="55" height="55" rx="5.5" transform="matrix(1 0 -0.511893 0.859049 29.1181 118.593)" stroke="#192937"/>
<rect x="0.244054" y="0.429525" width="55" height="55" rx="5.5" transform="matrix(1 0 -0.511893 0.859049 84.1181 118.593)" stroke="#192937"/>
<rect x="0.244054" y="0.429525" width="55" height="55" rx="5.5" transform="matrix(1 0 -0.511893 0.859049 139.118 118.593)" stroke="#192937"/>
<rect x="0.244054" y="0.429525" width="55" height="55" rx="5.5" transform="matrix(1 0 -0.511893 0.859049 194.118 118.593)" stroke="#192937"/>
<rect x="0.244054" y="0.429525" width="55" height="55" rx="5.5" transform="matrix(1 0 -0.511893 0.859049 249.118 118.593)" stroke="#192937"/>
<rect x="0.244054" y="0.429525" width="55" height="55" rx="5.5" transform="matrix(1 0 -0.511893 0.859049 304.118 118.593)" stroke="#192937"/>
<rect x="0.244054" y="0.429525" width="55" height="55" rx="5.5" transform="matrix(1 0 -0.511893 0.859049 359.118 118.593)" stroke="#192937"/>
<rect x="0.244054" y="0.429525" width="55" height="55" rx="5.5" transform="matrix(1 0 -0.511893 0.859049 414.118 118.593)" stroke="#192937"/>
<rect x="0.244054" y="0.429525" width="55" height="55" rx="5.5" transform="matrix(1 0 -0.511893 0.859049 469.118 118.593)" stroke="#192937"/>
<rect x="0.244054" y="0.429525" width="55" height="55" rx="5.5" transform="matrix(1 0 -0.511893 0.859049 524.118 118.593)" stroke="#192937"/>
</g>
</svg>
