<svg width="551" height="170" viewBox="0 0 551 170" fill="none" xmlns="http://www.w3.org/2000/svg">
<g clip-path="url(#clip0_902_131)">
<path d="M162.872 0.429504H118.872C115.835 0.429504 112.112 2.54486 110.557 5.15427L88.0335 42.9524C86.4786 45.5619 87.6805 47.6772 90.7181 47.6772H134.718C137.756 47.6772 141.479 45.5619 143.033 42.9524L165.557 5.15427C167.112 2.54486 165.91 0.429504 162.872 0.429504Z" stroke="#192937"/>
<path d="M217.872 0.429504H173.872C170.835 0.429504 167.112 2.54486 165.557 5.15427L143.033 42.9524C141.479 45.5619 142.681 47.6772 145.718 47.6772H189.718C192.756 47.6772 196.479 45.5619 198.033 42.9524L220.557 5.15427C222.112 2.54486 220.91 0.429504 217.872 0.429504Z" stroke="#192937"/>
<path d="M272.872 0.429504H228.872C225.835 0.429504 222.112 2.54486 220.557 5.15427L198.033 42.9524C196.479 45.5619 197.681 47.6772 200.718 47.6772H244.718C247.756 47.6772 251.479 45.5619 253.033 42.9524L275.557 5.15427C277.112 2.54486 275.91 0.429504 272.872 0.429504Z" stroke="#192937"/>
<path d="M327.872 0.429504H283.872C280.835 0.429504 277.112 2.54486 275.557 5.15427L253.033 42.9524C251.479 45.5619 252.681 47.6772 255.718 47.6772H299.718C302.756 47.6772 306.479 45.5619 308.033 42.9524L330.557 5.15427C332.112 2.54486 330.91 0.429504 327.872 0.429504Z" stroke="#192937"/>
<path d="M382.872 0.429504H338.872C335.835 0.429504 332.112 2.54486 330.557 5.15427L308.033 42.9524C306.479 45.5619 307.681 47.6772 310.718 47.6772H354.718C357.756 47.6772 361.479 45.5619 363.033 42.9524L385.557 5.15427C387.112 2.54486 385.91 0.429504 382.872 0.429504Z" stroke="#192937"/>
<path d="M437.872 0.429504H393.872C390.835 0.429504 387.112 2.54486 385.557 5.15427L363.033 42.9524C361.479 45.5619 362.681 47.6772 365.718 47.6772H409.718C412.756 47.6772 416.479 45.5619 418.033 42.9524L440.557 5.15427C442.112 2.54486 440.91 0.429504 437.872 0.429504Z" stroke="#192937"/>
<path d="M492.872 0.429504H448.872C445.835 0.429504 442.112 2.54486 440.557 5.15427L418.033 42.9524C416.479 45.5619 417.681 47.6772 420.718 47.6772H464.718C467.756 47.6772 471.479 45.5619 473.033 42.9524L495.557 5.15427C497.112 2.54486 495.91 0.429504 492.872 0.429504Z" stroke="#192937"/>
<path d="M547.872 0.429504H503.872C500.835 0.429504 497.112 2.54486 495.557 5.15427L473.033 42.9524C471.479 45.5619 472.681 47.6772 475.718 47.6772H519.718C522.756 47.6772 526.479 45.5619 528.033 42.9524L550.557 5.15427C552.112 2.54486 550.91 0.429504 547.872 0.429504Z" stroke="#192937"/>
<path d="M602.872 0.429504H558.872C555.835 0.429504 552.112 2.54486 550.557 5.15427L528.033 42.9524C526.479 45.5619 527.681 47.6772 530.718 47.6772H574.718C577.756 47.6772 581.479 45.5619 583.033 42.9524L605.557 5.15427C607.112 2.54486 605.91 0.429504 602.872 0.429504Z" stroke="#192937"/>
<path d="M134.718 47.6773H90.7181C87.6806 47.6773 83.9576 49.7927 82.4027 52.4021L59.8794 90.2002C58.3245 92.8097 59.5265 94.925 62.564 94.925H106.564C109.602 94.925 113.325 92.8097 114.879 90.2002L137.403 52.4021C138.958 49.7927 137.756 47.6773 134.718 47.6773Z" stroke="#192937"/>
<path d="M189.718 47.6773H145.718C142.681 47.6773 138.958 49.7927 137.403 52.4021L114.879 90.2002C113.325 92.8097 114.526 94.925 117.564 94.925H161.564C164.602 94.925 168.325 92.8097 169.879 90.2002L192.403 52.4021C193.958 49.7927 192.756 47.6773 189.718 47.6773Z" stroke="#192937"/>
<path d="M244.718 47.6773H200.718C197.681 47.6773 193.958 49.7927 192.403 52.4021L169.879 90.2002C168.325 92.8097 169.526 94.925 172.564 94.925H216.564C219.602 94.925 223.325 92.8097 224.879 90.2002L247.403 52.4021C248.958 49.7927 247.756 47.6773 244.718 47.6773Z" stroke="#192937"/>
<path d="M299.718 47.6773H255.718C252.681 47.6773 248.958 49.7927 247.403 52.4021L224.879 90.2002C223.325 92.8097 224.526 94.925 227.564 94.925H271.564C274.602 94.925 278.325 92.8097 279.879 90.2002L302.403 52.4021C303.958 49.7927 302.756 47.6773 299.718 47.6773Z" stroke="#192937"/>
<path d="M354.718 47.6773H310.718C307.681 47.6773 303.958 49.7927 302.403 52.4021L279.879 90.2002C278.325 92.8097 279.526 94.925 282.564 94.925H326.564C329.602 94.925 333.325 92.8097 334.879 90.2002L357.403 52.4021C358.958 49.7927 357.756 47.6773 354.718 47.6773Z" stroke="#192937"/>
<path d="M409.718 47.6773H365.718C362.681 47.6773 358.958 49.7927 357.403 52.4021L334.879 90.2002C333.325 92.8097 334.526 94.925 337.564 94.925H381.564C384.602 94.925 388.325 92.8097 389.879 90.2002L412.403 52.4021C413.958 49.7927 412.756 47.6773 409.718 47.6773Z" stroke="#192937"/>
<path d="M464.718 47.6773H420.718C417.681 47.6773 413.958 49.7927 412.403 52.4021L389.879 90.2002C388.325 92.8097 389.526 94.925 392.564 94.925H436.564C439.602 94.925 443.325 92.8097 444.879 90.2002L467.403 52.4021C468.958 49.7927 467.756 47.6773 464.718 47.6773Z" stroke="#192937"/>
<path d="M519.718 47.6773H475.718C472.681 47.6773 468.958 49.7927 467.403 52.4021L444.879 90.2002C443.325 92.8097 444.526 94.925 447.564 94.925H491.564C494.602 94.925 498.325 92.8097 499.879 90.2002L522.403 52.4021C523.958 49.7927 522.756 47.6773 519.718 47.6773Z" stroke="#192937"/>
<path d="M574.718 47.6773H530.718C527.681 47.6773 523.958 49.7927 522.403 52.4021L499.88 90.2002C498.325 92.8097 499.527 94.925 502.564 94.925H546.564C549.602 94.925 553.325 92.8097 554.88 90.2002L577.403 52.4021C578.958 49.7927 577.756 47.6773 574.718 47.6773Z" stroke="#192937"/>
<path d="M106.564 94.925H62.564C59.5264 94.925 55.8035 97.0403 54.2486 99.6498L31.7253 137.448C30.1704 140.057 31.3723 142.173 34.4099 142.173H78.4099C81.4474 142.173 85.1704 140.057 86.7253 137.448L109.249 99.6498C110.803 97.0403 109.602 94.925 106.564 94.925Z" stroke="#192937"/>
<path d="M161.564 94.925H117.564C114.527 94.925 110.804 97.0403 109.249 99.6498L86.7255 137.448C85.1706 140.057 86.3725 142.173 89.4101 142.173H133.41C136.448 142.173 140.171 140.057 141.726 137.448L164.249 99.6498C165.804 97.0403 164.602 94.925 161.564 94.925Z" stroke="#192937"/>
<path d="M216.564 94.925H172.564C169.527 94.925 165.804 97.0403 164.249 99.6498L141.726 137.448C140.171 140.057 141.373 142.173 144.41 142.173H188.41C191.448 142.173 195.171 140.057 196.726 137.448L219.249 99.6498C220.804 97.0403 219.602 94.925 216.564 94.925Z" stroke="#192937"/>
<path d="M271.564 94.925H227.564C224.527 94.925 220.804 97.0403 219.249 99.6498L196.726 137.448C195.171 140.057 196.373 142.173 199.41 142.173H243.41C246.448 142.173 250.171 140.057 251.726 137.448L274.249 99.6498C275.804 97.0403 274.602 94.925 271.564 94.925Z" stroke="#192937"/>
<path d="M326.564 94.925H282.564C279.527 94.925 275.804 97.0403 274.249 99.6498L251.726 137.448C250.171 140.057 251.373 142.173 254.41 142.173H298.41C301.448 142.173 305.171 140.057 306.726 137.448L329.249 99.6498C330.804 97.0403 329.602 94.925 326.564 94.925Z" stroke="#192937"/>
<path d="M381.564 94.925H337.564C334.527 94.925 330.804 97.0403 329.249 99.6498L306.726 137.448C305.171 140.057 306.373 142.173 309.41 142.173H353.41C356.448 142.173 360.171 140.057 361.726 137.448L384.249 99.6498C385.804 97.0403 384.602 94.925 381.564 94.925Z" stroke="#192937"/>
<path d="M436.564 94.925H392.564C389.527 94.925 385.804 97.0403 384.249 99.6498L361.726 137.448C360.171 140.057 361.373 142.173 364.41 142.173H408.41C411.448 142.173 415.171 140.057 416.726 137.448L439.249 99.6498C440.804 97.0403 439.602 94.925 436.564 94.925Z" stroke="#192937"/>
<path d="M491.564 94.925H447.564C444.527 94.925 440.804 97.0403 439.249 99.6498L416.726 137.448C415.171 140.057 416.373 142.173 419.41 142.173H463.41C466.448 142.173 470.171 140.057 471.726 137.448L494.249 99.6498C495.804 97.0403 494.602 94.925 491.564 94.925Z" stroke="#192937"/>
<path d="M546.564 94.925H502.564C499.527 94.925 495.804 97.0403 494.249 99.6498L471.726 137.448C470.171 140.057 471.373 142.173 474.41 142.173H518.41C521.448 142.173 525.171 140.057 526.726 137.448L549.249 99.6498C550.804 97.0403 549.602 94.925 546.564 94.925Z" stroke="#192937"/>
<path d="M601.564 94.925H557.564C554.527 94.925 550.804 97.0403 549.249 99.6498L526.726 137.448C525.171 140.057 526.373 142.173 529.41 142.173H573.41C576.448 142.173 580.171 140.057 581.726 137.448L604.249 99.6498C605.804 97.0403 604.602 94.925 601.564 94.925Z" stroke="#192937"/>
<path d="M78.41 142.173H34.41C31.3724 142.173 27.6495 144.288 26.0946 146.898L3.57127 184.696C2.01636 187.305 3.21829 189.421 6.25586 189.421H50.2559C53.2934 189.421 57.0164 187.305 58.5713 184.696L81.0946 146.898C82.6495 144.288 81.4475 142.173 78.41 142.173Z" stroke="#192937"/>
<path d="M133.41 142.173H89.41C86.3725 142.173 82.6495 144.288 81.0946 146.898L58.5713 184.696C57.0164 187.305 58.2184 189.421 61.2559 189.421H105.256C108.293 189.421 112.016 187.305 113.571 184.696L136.095 146.898C137.65 144.288 136.448 142.173 133.41 142.173Z" stroke="#192937"/>
<path d="M188.41 142.173H144.41C141.373 142.173 137.65 144.288 136.095 146.898L113.571 184.696C112.017 187.305 113.218 189.421 116.256 189.421H160.256C163.294 189.421 167.017 187.305 168.571 184.696L191.095 146.898C192.65 144.288 191.448 142.173 188.41 142.173Z" stroke="#192937"/>
<path d="M243.41 142.173H199.41C196.373 142.173 192.65 144.288 191.095 146.898L168.571 184.696C167.017 187.305 168.218 189.421 171.256 189.421H215.256C218.294 189.421 222.017 187.305 223.571 184.696L246.095 146.898C247.65 144.288 246.448 142.173 243.41 142.173Z" stroke="#192937"/>
<path d="M298.41 142.173H254.41C251.373 142.173 247.65 144.288 246.095 146.898L223.571 184.696C222.017 187.305 223.218 189.421 226.256 189.421H270.256C273.294 189.421 277.017 187.305 278.571 184.696L301.095 146.898C302.65 144.288 301.448 142.173 298.41 142.173Z" stroke="#192937"/>
<path d="M353.41 142.173H309.41C306.373 142.173 302.65 144.288 301.095 146.898L278.571 184.696C277.017 187.305 278.218 189.421 281.256 189.421H325.256C328.294 189.421 332.017 187.305 333.571 184.696L356.095 146.898C357.65 144.288 356.448 142.173 353.41 142.173Z" stroke="#192937"/>
<path d="M408.41 142.173H364.41C361.373 142.173 357.65 144.288 356.095 146.898L333.571 184.696C332.017 187.305 333.218 189.421 336.256 189.421H380.256C383.294 189.421 387.017 187.305 388.571 184.696L411.095 146.898C412.65 144.288 411.448 142.173 408.41 142.173Z" stroke="#192937"/>
<path d="M463.41 142.173H419.41C416.373 142.173 412.65 144.288 411.095 146.898L388.571 184.696C387.017 187.305 388.218 189.421 391.256 189.421H435.256C438.294 189.421 442.017 187.305 443.571 184.696L466.095 146.898C467.65 144.288 466.448 142.173 463.41 142.173Z" stroke="#192937"/>
<path d="M518.41 142.173H474.41C471.373 142.173 467.65 144.288 466.095 146.898L443.571 184.696C442.017 187.305 443.218 189.421 446.256 189.421H490.256C493.294 189.421 497.017 187.305 498.571 184.696L521.095 146.898C522.65 144.288 521.448 142.173 518.41 142.173Z" stroke="#192937"/>
<path d="M573.41 142.173H529.41C526.373 142.173 522.65 144.288 521.095 146.898L498.571 184.696C497.017 187.305 498.218 189.421 501.256 189.421H545.256C548.294 189.421 552.017 187.305 553.571 184.696L576.095 146.898C577.65 144.288 576.448 142.173 573.41 142.173Z" stroke="#192937"/>
</g>
<defs>
<clipPath id="clip0_902_131">
<rect width="551" height="190" fill="white"/>
</clipPath>
</defs>
</svg>
